# xmcd CD database file
#
# Track frame offsets:
#	150
#	17428
#	39768
#	62880
#	74783
#	94908
#	112615
#	130185
#	141080
#	159088
#
# Disc length: 2362 seconds
#
# Revision: 0
# Processed by: cddbd v1.5PL3 Copyright (c) Steve Scherf et al.
# Submitted via: CDex 1.50Beta7
#
DISCID=7a09380a
DTITLE=JITTERIN' JINN - BEST SONGS
DYEAR=1992
DGENRE=Pop
TTITLE0=エブリデイ
TTITLE1=SINKY-YORK
TTITLE2=プレゼント
TTITLE3=プリプリダーリン
TTITLE4=にちようび
TTITLE5=Don't let me down
TTITLE6=夏祭り
TTITLE7=くわえたばこのブルース
TTITLE8=帰っておいで
TTITLE9=相合傘（シングルミックス）
EXTD=YEAR: 1992
EXTT0=
EXTT1=
EXTT2=
EXTT3=
EXTT4=
EXTT5=
EXTT6=
EXTT7=
EXTT8=
EXTT9=
PLAYORDER=
